:SAMPLES-PER-SECOND 30
:FULLY-SPECIFIED
:DEGREES
290
root  -4.70319 23.3278 32.8775 158.665 -74.9507 -151.526
RightUpLeg  -19.6658 -20.9911 -13.3462
RightLeg  78.5976 1.52171 5.29915
RightFoot  -35.3267 -0.420695 -0.943548
RightToes  -60.1343 -0.395814 -0.398562
Spine  17.0218 8.89773 -3.17385
Spine1  28.1625 25.7968 -12.9702
HEad  12.4797 6.40215 0.199378
LeftShoulder1  0 -2.42657e-020 -4.95415e-022
LeftArm  -51.2321 -12.2422 -87.2302
LeftForeArm  23.5516 -15.7065 -2.83794
LeftHand  0.217586 -2.57071 -10.0715
RightShoulder  0 2.42657e-020 1.07489e-018
RightArm  -35.6745 34.3844 92.9423
RightForeArm  69.9734 2.90645 0.452311
RightHand  0.0141924 21.9861 0.443197
LeftUpLeg  -73.5976 17.1741 17.802
LeftLeg  75.9974 -4.00914 -12.3893
LeftFoot  6.68101 0.0633727 -1.0857
LeftToes  -30.2535 1.18758e-006 1.19596e-007
291
root  -6.34364 23.1407 32.7055 140.81 -80.4444 -131.411
RightUpLeg  -17.3303 -20.5844 -12.0671
RightLeg  80.063 0.46489 1.53866
RightFoot  -30.0517 0.34064 1.64654
RightToes  -66.0455 -0.452323 -0.410755
Spine  17.0975 8.83233 -4.44034
Spine1  27.908 25.6493 -14.1784
HEad  10.1996 2.93969 3.22932
LeftShoulder1  0 -2.42657e-020 -4.95415e-022
LeftArm  -52.4387 -14.1374 -85.3862
LeftForeArm  23.7843 -15.6982 -2.83631
LeftHand  0.307116 -3.32203 -10.9536
RightShoulder  0 2.42657e-020 1.07489e-018
RightArm  -34.8031 34.1136 96.6999
RightForeArm  69.711 0.940608 0.108448
RightHand  0.383925 19.4879 2.60631
LeftUpLeg  -77.7459 11.5002 17.4196
LeftLeg  79.7041 -3.129 -12.3956
LeftFoot  3.68397 0.0108026 -0.335912
LeftToes  -30.8516 1.18758e-006 1.19596e-007
292
root  -7.95306 23.3147 32.4021 96.6974 -82.8687 -85.1328
RightUpLeg  -15.7605 -20.1893 -9.45659
RightLeg  81.0794 -0.148537 -1.08374
RightFoot  -21.7405 0.4986 2.97367
RightToes  -70.0227 -0.490918 -0.415652
Spine  17.2685 8.4961 -5.53982
Spine1  27.8967 24.9548 -15.5998
HEad  8.61992 0.415629 6.9308
LeftShoulder1  0 -2.42657e-020 -4.95415e-022
LeftArm  -50.7415 -14.7056 -82.1153
LeftForeArm  22.2137 -18.2224 -3.32257
LeftHand  0.462463 -4.50344 -12.109
RightShoulder  0 2.42657e-020 1.07489e-018
RightArm  -34.7654 32.9528 100.963
RightForeArm  69.9907 2.00261 0.293732
RightHand  -0.274815 18.568 -1.31146
LeftUpLeg  -80.1926 7.57022 17.0466
LeftLeg  81.2914 -3.23803 -14.4494
LeftFoot  1.40297 -0.00248555 0.202995
LeftToes  -32.3488 1.18758e-006 1.19596e-007
293
root  -9.46373 23.7906 32.0014 60.9763 -80.4826 -47.2073
RightUpLeg  -16.2044 -19.1661 -6.27353
RightLeg  82.2315 -0.234265 -1.62979
RightFoot  -11.8175 0.265681 2.9444
RightToes  -67.6355 -0.46771 -0.413034
Spine  17.6381 8.26432 -6.56927
Spine1  28.3052 24.4405 -16.9265
HEad  6.91942 -1.88125 10.8342
LeftShoulder1  0 -2.42657e-020 -4.95415e-022
LeftArm  -48.7149 -15.7295 -78.2074
LeftForeArm  21.6315 -21.7272 -4.02289
LeftHand  0.610528 -5.87956 -12.2306
RightShoulder  0 2.42657e-020 1.07489e-018
RightArm  -35.769 33.0527 104.213
RightForeArm  71.3409 3.19798 0.499933
RightHand  -0.832313 18.2872 -4.79934
LeftUpLeg  -81.2081 5.84575 16.3462
LeftLeg  81.1989 -3.9682 -17.3886
LeftFoot  -0.315468 0.00209824 0.76214
LeftToes  -32.2309 1.18758e-006 1.19596e-007
294
root  -10.8607 24.4906 31.5465 46.4252 -76.0024 -30.4254
RightUpLeg  -17.9426 -18.8135 -3.01204
RightLeg  83.1266 0.18249 0.45435
RightFoot  -2.15041 0.0403209 2.52649
RightToes  -55.6433 -0.353891 -0.385443
Spine  17.9028 7.91717 -7.09346
Spine1  28.7493 23.5793 -17.5817
HEad  5.81594 -3.95554 14.9585
LeftShoulder1  0 -2.42657e-020 -4.95415e-022
LeftArm  -49.5507 -16.0186 -73.674
LeftForeArm  27.5861 -26.5319 -5.04278
LeftHand  0.77617 -8.48119 -10.8178
RightShoulder  0 2.42657e-020 1.07489e-018
RightArm  -38.6246 33.0803 105.935
RightForeArm  68.146 4.97566 0.82117
RightHand  -0.990478 20.2777 -5.16617
LeftUpLeg  -81.2714 4.02606 16.5976
LeftLeg  79.5765 -5.17034 -19.7552
LeftFoot  -1.29629 0.0132179 1.16836
LeftToes  -33.0576 1.18758e-006 1.19596e-007
295
root  -12.1127 25.3192 31.1224 39.8218 -71.2978 -21.4819
RightUpLeg  -20.647 -19.5512 -0.912464
RightLeg  82.6593 0.450654 1.8151
RightFoot  -0.986869 0.0172068 2.37697
RightToes  -47.2361 -0.278712 -0.352244
Spine  17.9801 7.57998 -7.13572
Spine1  28.9859 22.6561 -17.8774
HEad  4.68845 -6.08745 18.4782
LeftShoulder1  0 -2.42657e-020 -4.95415e-022
LeftArm  -50.3325 -15.7191 -67.5354
LeftForeArm  10.0499 -31.2417 -6.12996
LeftHand  1.2177 -7.11257 -19.7952
RightShoulder  0 2.42657e-020 1.07489e-018
RightArm  -40.3905 32.0484 106.356
RightForeArm  62.5525 8.51682 1.46444
RightHand  -0.694702 21.6196 -3.26814
LeftUpLeg  -80.8573 1.63352 17.3395
LeftLeg  76.7406 -6.76178 -21.1542
LeftFoot  -1.59743 0.018111 1.29904
LeftToes  -34.0404 1.18758e-006 1.19596e-007
296
root  -13.2353 26.2013 30.6933 38.1757 -67.5965 -17.6184
RightUpLeg  -24.2926 -20.6551 0.183576
RightLeg  80.3921 -0.357606 -1.90449
RightFoot  -5.43304 0.0974817 2.43214
RightToes  -45.4891 -0.263749 -0.343983
Spine  18.1146 7.51862 -6.59734
Spine1  29.5074 22.2351 -17.1625
HEad  3.2362 -7.96182 20.8186
LeftShoulder1  0 -2.42657e-020 -4.95415e-022
LeftArm  -46.8368 -15.6259 -63.9516
LeftForeArm  11.9748 -36.2126 -7.41201
LeftHand  1.57367 -7.19307 -25.0443
RightShoulder  0 2.42657e-020 1.07489e-018
RightArm  -38.7905 31.2374 104.582
RightForeArm  55.5626 11.9282 2.09815
RightHand  -0.297457 23.9937 -1.02999
LeftUpLeg  -79.7757 0.142749 18.5895
LeftLeg  73.2286 -8.64057 -21.9579
LeftFoot  -1.72394 0.0187561 1.24658
LeftToes  -35.1865 1.18758e-006 1.19596e-007
297
root  -14.2721 27.06 30.2847 37.6802 -65.2846 -15.4967
RightUpLeg  -27.8126 -21.5032 -0.402285
RightLeg  76.8849 -1.47473 -5.15389
RightFoot  -7.1243 0.15339 2.84148
RightToes  -41.5321 -0.230837 -0.323613
Spine  18.3338 7.7844 -5.81623
Spine1  30.1526 22.5848 -16.3118
HEad  1.86342 -9.46112 22.2388
LeftShoulder1  0 -2.42657e-020 -4.95415e-022
LeftArm  -44.2003 -15.2544 -63.2346
LeftForeArm  8.94896 -41.793 -9.06466
LeftHand  1.83545 -7.05435 -29.5332
RightShoulder  0 2.42657e-020 1.07489e-018
RightArm  -37.9838 30.392 101.636
RightForeArm  50.0512 15.1414 2.70647
RightHand  -0.0944344 24.4708 -0.0654765
LeftUpLeg  -77.6646 -0.749737 19.792
LeftLeg  69.3213 -10.4497 -21.8434
LeftFoot  -1.91393 0.0190595 1.14098
LeftToes  -36.3796 1.18758e-006 1.19596e-007
298
root  -15.2386 27.8328 29.9215 37.5148 -63.6379 -14.147
RightUpLeg  -30.8782 -22.3893 -1.96429
RightLeg  72.1158 -2.77366 -7.17018
RightFoot  -8.53562 0.215601 3.26631
RightToes  -39.2688 -0.212669 -0.310955
Spine  18.4192 8.02135 -4.83383
Spine1  30.518 23.045 -15.6702
HEad  1.47038 -10.2345 22.8238
LeftShoulder1  0 -2.42657e-020 -4.95415e-022
LeftArm  -44.924 -13.8264 -64.8146
LeftForeArm  8.89687 -49.2117 -11.8001
LeftHand  1.64644 -5.64731 -32.8929
RightShoulder  0 2.42657e-020 1.07489e-018
RightArm  -37.2733 29.5725 98.6766
RightForeArm  45.0703 17.9227 3.24769
RightHand  -0.167843 23.8449 -0.425018
LeftUpLeg  -75.277 -1.90544 21.2972
LeftLeg  65.4063 -11.6912 -20.6544
LeftFoot  -1.94888 0.0155898 0.916543
LeftToes  -37.9675 1.18758e-006 1.19596e-007
